<svg id="Q8F4JJUdqp" viewBox="0 0 369.89473684210526 87.70170222239875" height="87.70170222239875"
    width="369.89473684210526">
    <defs id="SvgjsDefs1078"></defs>
    <g id="SvgjsG1079" featurekey="symbolFeature-0"
        transform="matrix(2.1925425555599687,0,0,2.1925425555599687,-24.117968111159655,-26.310510666719622)"
        fill="#111111">
        <title xmlns="http://www.w3.org/2000/svg">home
            appliances-electronic-electric-household-electricity</title>
        <polygon xmlns="http://www.w3.org/2000/svg"
            points="51 42 51 21 36 12 21 21 21 42 30 42 30 27 42 27 42 42 51 42"></polygon>
        <path xmlns="http://www.w3.org/2000/svg"
            d="M23,50H47.18a3,3,0,1,0,0-2H24V47a3,3,0,0,0-6,0v2a1,1,0,0,1-2,0V30h.5c.83,0,1.5-.5,1.5-1.11V26.67a1,1,0,0,0-.28-.65A3.43,3.43,0,0,0,19,23.4V21H18V19a1,1,0,0,0-2,0v2H14V19a1,1,0,0,0-2,0v2H11v2.4A3.43,3.43,0,0,0,12.28,26a1,1,0,0,0-.28.65v2.22c0,.61.67,1.11,1.5,1.11H14V49a3,3,0,0,0,6,0V47a1,1,0,0,1,2,0v2A1,1,0,0,0,23,50Z"></path>
    </g>
    <g id="SvgjsG1080" featurekey="nameFeature-0"
        transform="matrix(1.5486928067286005,0,0,1.5486928067286005,109.58078485398204,7.054476509534741)"
        fill="#111111">
        <path
            d="M1.5625 8.515999999999998 l6.3086 0 l0 25.176 l12.578 0 l0 6.3086 l-18.887 0 l0 -31.484 z M22.79296875 8.515999999999998 l18.887 0 l0 6.2891 l-12.578 0 l0 6.3086 l9.4336 0 l0 6.2891 l-9.4336 0 l0 6.2891 l12.578 0 l0 6.3086 l-12.578 0 l-6.3086 0 l0 -31.484 z M44.609375 8.515999999999998 l6.3086 0 l0 25.176 l12.578 0 l0 6.3086 l-18.887 0 l0 -31.484 z M65.83984375 8.515999999999998 l18.887 0 l0 6.2891 l-12.578 0 l0 6.3086 l9.4336 0 l0 6.2891 l-9.4336 0 l0 6.2891 l12.578 0 l0 6.3086 l-12.578 0 l-6.3086 0 l0 -31.484 z M95.13675 8.515999999999998 l6.3086 0 l7.8711 0 l0 6.2891 l-7.8711 0 l0 25.195 l-6.3086 0 l0 -25.195 l-7.8711 0 l0 -6.2891 l7.8711 0 z M112.05078125 40 l-0.019531 -31.523 l10.234 0 c3.0273 0 6.0156 1.0547 8.1836 3.2227 s3.0469 4.1992 3.0469 7.2266 l0 0.97656 c0 2.3438 -0.66406 4.0625 -1.9922 5.9375 s-2.4414 2.4219 -4.5117 3.2031 l7.1094 10.957 l-7.6953 0 l-8.0469 -12.305 l0 12.305 l-6.3086 0 z M118.33988125 23.633 l4.5117 0.019531 c1.3086 0 1.9727 -0.33203 2.8906 -1.25 s1.25 -1.9727 1.25 -3.2813 c0 -1.2891 -0.33203 -2.1484 -1.25 -3.0859 s-2.5586 -1.2695 -3.8672 -1.2695 l-3.5352 0 l0 8.8672 z M152.14875 8.359000000000002 c4.375 0 8.125 1.5625 11.25 4.6875 s4.6875 6.875 4.6875 11.25 s-1.5625 8.125 -4.6875 11.23 s-6.875 4.668 -11.25 4.668 s-8.125 -1.5625 -11.23 -4.668 s-4.668 -6.8555 -4.668 -11.23 s1.5625 -8.125 4.668 -11.25 s6.8555 -4.6875 11.23 -4.6875 z M152.14875 14.707 c-2.6367 0 -4.8828 0.9375 -6.7383 2.8125 s-2.793 4.1211 -2.793 6.7383 c0 2.6367 0.9375 4.8828 2.793 6.7383 s4.1016 2.793 6.7383 2.793 c2.6172 0 4.8633 -0.9375 6.7383 -2.793 s2.8125 -4.1016 2.8125 -6.7383 c0 -2.6172 -0.9375 -4.8633 -2.8125 -6.7383 s-4.1211 -2.8125 -6.7383 -2.8125 z"></path>
    </g>
</svg>